<svg width="88" height="88" viewBox="0 0 88 88" fill="none" xmlns="http://www.w3.org/2000/svg">
  <rect width="88" height="88" rx="22" fill="#F5F7FB"/>
  <path d="M56.688 49.593c0 6.901-5.598 12.5-12.5 12.5-6.9 0-12.5-5.599-12.5-12.5 0-6.9 5.6-12.5 12.5-12.5 6.902 0 12.5 5.6 12.5 12.5Z" fill="#85BBDA"/>
  <path d="M48.54 54.969h-3.731c-.194 0-.358.143-.383.335l-.009.067c-.039.292-.373.429-.613.258-1.005-.716-2.25-1.129-3.654-1.129-3.422 0-6.124 2.521-6.124 5.834 0 3.276 2.63 5.798 6.268 5.798 1.369 0 2.629-.468 3.746-1.188v.575c0 1.8-.899 2.736-3.563 2.736-1.22 0-2.41-.212-3.597-.579-.15-.046-.297.078-.272.233l.499 3.089a.376.376 0 0 0 .159.174c1.46.371 2.82.542 4.145.542 4.638 0 7.191-1.944 7.191-5.91v-8.036l.133-2.733a.29.29 0 0 0-.266-.284Zm-5.038-6.054c-1.571 0-2.737 1.112-2.737 2.547 0 1.436 1.166 2.548 2.737 2.548 1.618 0 2.832-1.112 2.832-2.548 0-1.435-1.214-2.547-2.832-2.547Z" fill="#1D2D44"/>
  <circle cx="61.5" cy="24.5" r="6.5" fill="#85BBDA"/>
</svg>
