<svg width="320" height="132" viewBox="0 0 320 132" fill="none" xmlns="http://www.w3.org/2000/svg">
  <rect width="320" height="132" fill="white"/>
  <path d="M74.1 86.9C66.8 86.9 61.3 84.6 57.5 80.1C53.9 75.5 52.1 69.2 52.1 61.4C52.1 53.6 53.9 47.3 57.5 42.7C61.3 38.2 66.8 35.9 74.1 35.9C78.4 35.9 82.1 36.8 85.2 38.7C88.4 40.5 90.8 43.1 92.5 46.5V36.8H114.9V86H92.5V75.9C90.8 79.3 88.4 81.9 85.2 83.8C82.1 85.8 78.4 86.9 74.1 86.9ZM83.7 69.8C86.4 69.8 88.6 68.9 90.4 67.1C92.2 65.3 93.1 63 93.1 60.1C93.1 57.2 92.2 54.9 90.4 53.1C88.6 51.4 86.4 50.5 83.7 50.5C81 50.5 78.8 51.4 77 53.1C75.4 54.9 74.5 57.2 74.5 60.1C74.5 63 75.4 65.3 77 67.1C78.8 68.9 81 69.8 83.7 69.8Z" fill="#0F172A"/>
  <path d="M122.5 86V36.8H144.4V45.5C146.3 42.5 148.9 40.1 152 38.4C155.1 36.8 158.7 35.9 162.8 35.9C168.6 35.9 173.3 37.8 176.7 41.5C180.2 45.1 181.9 50.1 181.9 56.5V86H160V61.8C160 59.1 159.3 57 157.8 55.5C156.4 54 154.5 53.3 152.2 53.3C149.8 53.3 147.9 54 146.5 55.5C145.1 57 144.4 59.1 144.4 61.8V86H122.5Z" fill="#0F172A"/>
  <path d="M209.1 86.9C201.8 86.9 196.2 84.6 192.4 80.1C188.8 75.5 187 69.2 187 61.4C187 53.6 188.8 47.3 192.4 42.7C196.2 38.2 201.8 35.9 209.1 35.9C213.3 35.9 217 36.8 220.2 38.7C223.4 40.5 225.8 43.1 227.5 46.5V36.8H249.9V86H227.5V75.9C225.8 79.3 223.4 81.9 220.2 83.8C217 85.8 213.3 86.9 209.1 86.9ZM218.6 69.8C221.4 69.8 223.6 68.9 225.4 67.1C227.2 65.3 228.1 63 228.1 60.1C228.1 57.2 227.2 54.9 225.4 53.1C223.6 51.4 221.4 50.5 218.6 50.5C216 50.5 213.8 51.4 212 53.1C210.3 54.9 209.5 57.2 209.5 60.1C209.5 63 210.3 65.3 212 67.1C213.8 68.9 216 69.8 218.6 69.8Z" fill="#0F172A"/>
  <path d="M281.5 86V54.4H271.2V36.8H281.5V34.8C281.5 27.4 283.7 21.9 288.2 18.1C292.7 14.5 299.2 12.6 307.6 12.6C309.7 12.6 311.8 12.8 313.9 13.2V29.9C312.8 29.7 311.8 29.6 311 29.6C308.6 29.6 306.8 30.1 305.7 31.2C304.6 32.3 304.1 34.1 304.1 36.8H314.6V54.4H304.1V86H281.5Z" fill="#0F172A"/>
  <circle cx="300.3" cy="86.3" r="7.7" fill="#85BBDA"/>
</svg>
